<svg width="71" height="81" viewBox="0 0 71 81" fill="none" xmlns="http://www.w3.org/2000/svg">
<path d="M37.5096 80.1709C38.9248 80.1709 40.1587 79.6568 41.1545 78.6448C41.6439 78.1496 42.0299 77.5621 42.2901 76.9163C42.5502 76.2706 42.6793 75.5795 42.6699 74.8834L42.0989 52.3777L60.5186 65.9861C63.5953 67.6476 66.0253 67.1118 67.8681 64.3301L69.765 61.2912C71.5347 58.3255 70.9989 55.9307 68.1062 54.0527L46.9805 40.4416L67.8681 26.8088C70.3711 25.1338 70.8149 22.7579 69.194 19.6081L67.2944 16.5314C65.3244 13.9526 62.9513 13.4195 60.2778 14.8537L42.0989 28.7625L42.6699 5.95911C42.6699 4.65211 42.1341 3.50748 41.1545 2.47649C40.6809 1.99103 40.1136 1.60686 39.4871 1.3473C38.8605 1.08774 38.1877 0.958205 37.5096 0.96655H33.9918C32.4981 0.96655 31.302 1.48069 30.3252 2.47649C29.3348 3.50748 28.8341 4.65211 28.8341 5.95911L29.3672 29.0385L10.6715 15.4084C9.56478 14.6697 8.33082 14.5046 7.00488 14.8537C5.66271 15.2244 4.59117 15.9794 3.89573 17.0672L1.74175 20.1412C0.118154 22.923 0.542979 25.3557 3.08661 27.3797L23.9742 40.4416L3.65757 53.5007C0.892048 55.5248 0.432025 58.0305 2.27481 60.9963L4.16903 63.778C4.89153 65.085 5.97393 65.84 7.42976 66.135C8.86664 66.4299 10.1385 66.1728 11.2263 65.4558L29.3672 52.099L28.8341 74.8834C28.8341 76.3771 29.3672 77.63 30.455 78.6448C31.5266 79.6568 32.7226 80.1709 33.9944 80.1709H37.5096Z" fill="#ED436A"/>
</svg>
