<svg width="291" height="329" viewBox="0 0 291 329" fill="none" xmlns="http://www.w3.org/2000/svg">
<path d="M153.018 328.171C158.878 328.171 163.987 326.042 168.11 321.852C170.136 319.801 171.735 317.369 172.812 314.695C173.889 312.021 174.424 309.16 174.385 306.278L172.02 213.091L248.289 269.437C261.028 276.317 271.09 274.098 278.72 262.58L286.574 249.998C293.902 237.718 291.683 227.802 279.706 220.026L192.233 163.668L278.72 107.22C289.084 100.285 290.922 90.4471 284.21 77.4052L276.345 64.6657C268.188 53.9879 258.362 51.7807 247.292 57.719L172.02 115.31L174.385 20.8901C174.385 15.4784 172.166 10.7389 168.11 6.47006C166.149 4.45996 163.8 2.86927 161.206 1.79454C158.612 0.719809 155.826 0.183444 153.018 0.218H138.452C132.267 0.218 127.315 2.34684 123.27 6.47006C119.169 10.7389 117.096 15.4784 117.096 20.8901L119.304 116.453L41.8925 60.0159C37.3099 56.9571 32.2006 56.2736 26.7104 57.719C21.1531 59.254 16.7163 62.38 13.8367 66.8842L4.91796 79.6124C-1.80468 91.1305 -0.0456591 101.203 10.4865 109.584L96.9734 163.668L12.8506 217.74C1.39969 226.121 -0.505074 236.497 7.12513 248.777L14.9683 260.295C17.9599 265.706 22.4417 268.832 28.4697 270.054C34.4192 271.275 39.6853 270.211 44.1895 267.241L119.304 211.936L117.096 306.278C117.096 312.462 119.304 317.65 123.808 321.852C128.245 326.042 133.197 328.171 138.463 328.171H153.018Z" fill="#ED436A"/>
</svg>
